<svg width="80" height="80" viewBox="0 0 80 80" fill="none" xmlns="http://www.w3.org/2000/svg">
<g id="Frame" clip-path="url(#clip0_11_499)">
<path id="Vector" d="M12.9661 52.2404L20.8494 1.5371C20.9059 1.161 21.0797 0.812327 21.346 0.540768C21.6123 0.269209 21.9575 0.0886132 22.3324 0.0247096C22.7074 -0.039194 23.0929 0.0168543 23.4341 0.184869C23.7753 0.352885 24.0548 0.624296 24.2327 0.960437L32.7094 16.8638L12.9661 52.2404ZM68.9461 64.5471L61.4461 17.8804C61.3946 17.5506 61.2525 17.2416 61.0356 16.988C60.8187 16.7343 60.5355 16.5459 60.2177 16.4439C59.8999 16.3419 59.56 16.3302 59.2359 16.4103C58.9119 16.4903 58.6165 16.6589 58.3827 16.8971L11.0527 64.5504L37.2394 79.3071C38.0476 79.7612 38.959 79.9997 39.8861 79.9997C40.8131 79.9997 41.7245 79.7612 42.5327 79.3071L68.9461 64.5471ZM47.6661 23.8238L41.5994 12.2171C41.4463 11.9252 41.2163 11.6808 40.9343 11.5102C40.6523 11.3397 40.329 11.2495 39.9994 11.2495C39.6698 11.2495 39.3465 11.3397 39.0645 11.5102C38.7825 11.6808 38.5525 11.9252 38.3994 12.2171L11.7661 59.9471L47.6661 23.8238Z" fill="#0696E7"/>
</g>
<defs>
<clipPath id="clip0_11_499">
<rect width="80" height="80" fill="white"/>
</clipPath>
</defs>
</svg>
