<svg width="80" height="80" viewBox="0 0 80 80" fill="none" xmlns="http://www.w3.org/2000/svg">
<g id="Frame">
<path id="Vector" d="M67.5 5H12.5C8.35938 5 5 8.35938 5 12.5V67.5C5 71.6406 8.35938 75 12.5 75H67.5C71.6406 75 75 71.6406 75 67.5V12.5C75 8.35938 71.6406 5 67.5 5ZM43.0938 59.5938C43.0938 66.4062 39.0938 69.5156 33.2656 69.5156C28 69.5156 24.9531 66.7969 23.3906 63.5L28.75 60.2656C29.7812 62.0938 30.7188 63.6406 32.9844 63.6406C35.1406 63.6406 36.5156 62.7969 36.5156 59.5V37.1406H43.0938V59.5938ZM58.6562 69.5156C52.5469 69.5156 48.5938 66.6094 46.6719 62.7969L52.0312 59.7031C53.4375 62 55.2812 63.7031 58.5156 63.7031C61.2344 63.7031 62.9844 62.3438 62.9844 60.4531C62.9844 58.2031 61.2031 57.4062 58.1875 56.0781L56.5469 55.375C51.7969 53.3594 48.6562 50.8125 48.6562 45.4531C48.6562 40.5156 52.4219 36.7656 58.2812 36.7656C62.4688 36.7656 65.4687 38.2188 67.625 42.0312L62.5 45.3125C61.375 43.2969 60.1562 42.5 58.2656 42.5C56.3438 42.5 55.125 43.7188 55.125 45.3125C55.125 47.2812 56.3438 48.0781 59.1719 49.3125L60.8125 50.0156C66.4062 52.4062 69.5469 54.8594 69.5469 60.3594C69.5469 66.2656 64.8906 69.5156 58.6562 69.5156Z" fill="#0696E7"/>
</g>
</svg>
