<svg width="80" height="80" viewBox="0 0 80 80" fill="none" xmlns="http://www.w3.org/2000/svg">
<g id="Frame" clip-path="url(#clip0_11_513)">
<path id="Vector" d="M38.5743 0C37.9867 0 37.5417 0.00433333 37.3797 0.0223333C37.2077 0.04 36.66 0.0923333 36.1677 0.131667C24.805 1.156 14.162 7.286 7.421 16.7077C3.66733 21.9467 1.26667 27.8887 0.36 34.1833C0.0393333 36.38 0 37.029 0 40.008C0 42.987 0.04 43.636 0.36 45.8333C2.53333 60.8533 13.2237 73.473 27.7223 78.1483C30.3187 78.9853 33.0557 79.556 36.168 79.9C37.38 80.0333 42.6193 80.0333 43.8313 79.9C49.2037 79.3057 53.7553 77.9767 58.2437 75.6857C58.932 75.3337 59.065 75.24 58.9713 75.1613C58.9087 75.115 55.9757 71.182 52.457 66.428L46.0603 57.788L38.0447 45.927C33.6343 39.4057 30.0057 34.0737 29.9743 34.0737C29.943 34.065 29.912 39.336 29.896 45.7703C29.8737 57.0377 29.865 57.491 29.724 57.757C29.5207 58.1403 29.364 58.2963 29.036 58.4683C28.786 58.593 28.5667 58.6167 27.386 58.6167H26.0327L25.6733 58.39C25.4505 58.2504 25.2695 58.0532 25.1493 57.8193L24.985 57.4673L25.0027 41.7907L25.025 26.106L25.267 25.801C25.3923 25.6367 25.6583 25.426 25.8457 25.3243C26.1663 25.1677 26.2917 25.152 27.6443 25.152C29.24 25.152 29.5057 25.2143 29.92 25.6677C30.0377 25.7933 34.3777 32.33 39.57 40.2037C44.8273 48.1731 50.0877 56.1404 55.3513 64.1057L61.6853 73.6997L62.0053 73.4887C64.8447 71.6433 67.847 69.016 70.2243 66.2797C75.284 60.47 78.5453 53.3863 79.64 45.833C79.9603 43.636 79.9993 42.9863 79.9993 40.008C79.9993 37.029 79.9593 36.38 79.64 34.1827C77.466 19.1627 66.776 6.543 52.2777 1.86767C49.7203 1.03867 46.999 0.467667 43.9493 0.123667C43.386 0.065 40.337 0.00133333 38.5743 0ZM52.136 24.0567C53.2937 24.0567 53.4967 24.0743 53.755 24.2133C54.1307 24.4007 54.435 24.7607 54.545 25.1357C54.607 25.339 54.623 29.6867 54.607 39.4837L54.5847 53.542L52.106 49.742L49.619 45.942V35.722C49.619 29.1153 49.65 25.401 49.697 25.2213C49.822 24.7837 50.0957 24.4393 50.4713 24.2363C50.7917 24.0717 50.908 24.0567 52.136 24.0567Z" fill="#0696E7"/>
</g>
<defs>
<clipPath id="clip0_11_513">
<rect width="80" height="80" fill="white"/>
</clipPath>
</defs>
</svg>
