<!DOCTYPE svg PUBLIC "-//W3C//DTD SVG 1.1//EN" "http://www.w3.org/Graphics/SVG/1.1/DTD/svg11.dtd">
<!-- Uploaded to: SVG Repo, www.svgrepo.com, Transformed by: SVG Repo Mixer Tools -->
<svg width="800px" height="800px" viewBox="0 0 512 512" data-name="Layer 1" id="Layer_1" xmlns="http://www.w3.org/2000/svg" fill="#aeb9e1">
<g id="SVGRepo_bgCarrier" stroke-width="0"/>
<g id="SVGRepo_tracerCarrier" stroke-linecap="round" stroke-linejoin="round"/>
<g id="SVGRepo_iconCarrier">
<defs>
<style>.cls-1{fill:none;stroke:#aeb9e1;stroke-linecap:round;stroke-linejoin:round;stroke-width:20px;}.cls-2{fill:#aeb9e1;}</style>
</defs>
<title/>
<circle class="cls-1" cx="255.99" cy="299.4" r="63.6"/>
<polyline class="cls-1" points="312.45 270.1 388.63 149 325.6 149 270.02 237.36"/>
<polyline class="cls-1" points="199.55 270.1 123.37 149 186.4 149 241.98 237.36"/>
<path class="cls-2" d="M266.77,289.33,283.63,292a1.92,1.92,0,0,1,1,3.29l-12.37,11.77a1.92,1.92,0,0,0-.57,1.7l2.68,16.86a1.92,1.92,0,0,1-2.81,2l-15-8.13a1.92,1.92,0,0,0-1.79,0l-15.21,7.76a1.92,1.92,0,0,1-2.77-2.06l3.09-16.79a2,2,0,0,0-.53-1.71l-12.09-12.07a1.93,1.93,0,0,1,1.11-3.27l16.92-2.25a1.94,1.94,0,0,0,1.47-1l7.74-15.22a1.92,1.92,0,0,1,3.45,0l7.37,15.4A1.92,1.92,0,0,0,266.77,289.33Z"/>
</g>
</svg>