<svg width="50" height="50" viewBox="0 0 50 50" fill="none" xmlns="http://www.w3.org/2000/svg">
<g id="bxs:quote-left" opacity="0.5">
<path id="Vector" d="M42.3097 36.8915C39.3868 40.0603 34.9639 41.6665 29.1659 41.6665L27.0826 41.6665L27.0826 35.7936L28.7576 35.4582C31.6118 34.8873 33.5972 33.7644 34.6597 32.1165C35.2141 31.2287 35.5285 30.2122 35.5722 29.1665L29.1659 29.1665C28.6134 29.1665 28.0835 28.947 27.6928 28.5563C27.3021 28.1656 27.0826 27.6357 27.0826 27.0832L27.0826 12.4998C27.0826 10.2019 28.9514 8.33317 31.2493 8.33317L43.7493 8.33318C44.3018 8.33318 44.8317 8.55267 45.2224 8.94337C45.6131 9.33407 45.8326 9.86397 45.8326 10.4165L45.8326 20.8332L45.8264 26.9144C45.8451 27.1457 46.2409 32.6248 42.3097 36.8915ZM8.33261 8.33317L20.8326 8.33317C21.3851 8.33317 21.915 8.55266 22.3057 8.94336C22.6964 9.33407 22.9159 9.86397 22.9159 10.4165L22.9159 20.8332L22.9097 26.9144C22.9284 27.1457 23.3243 32.6248 19.393 36.8915C16.4701 40.0603 12.0472 41.6665 6.24927 41.6665L4.16594 41.6665L4.16594 35.7936L5.84094 35.4582C8.69511 34.8873 10.6805 33.7644 11.743 32.1165C12.2974 31.2287 12.6118 30.2122 12.6555 29.1665L6.24927 29.1665C5.69674 29.1665 5.16683 28.947 4.77613 28.5563C4.38543 28.1656 4.16594 27.6357 4.16594 27.0832L4.16594 12.4998C4.16594 10.2019 6.03469 8.33317 8.33261 8.33317Z" fill="#0696E7"/>
</g>
</svg>
