<svg width="50" height="50" viewBox="0 0 50 50" fill="none" xmlns="http://www.w3.org/2000/svg">
<g id="bxs:quote-left" opacity="0.5">
<path id="Vector" d="M7.68836 13.1085C10.6113 9.93975 15.0342 8.3335 20.8321 8.3335H22.9154V14.2064L21.2404 14.5418C18.3863 15.1127 16.4009 16.2356 15.3384 17.8835C14.784 18.7713 14.4695 19.7878 14.4259 20.8335H20.8321C21.3846 20.8335 21.9145 21.053 22.3052 21.4437C22.6959 21.8344 22.9154 22.3643 22.9154 22.9168V37.5002C22.9154 39.7981 21.0467 41.6668 18.7488 41.6668H6.24878C5.69624 41.6668 5.16634 41.4473 4.77564 41.0566C4.38494 40.6659 4.16544 40.136 4.16544 39.5835L4.16544 29.1668L4.17169 23.0856C4.15294 22.8543 3.75711 17.3752 7.68836 13.1085ZM41.6654 41.6668L29.1654 41.6668C28.6129 41.6668 28.083 41.4473 27.6923 41.0566C27.3016 40.6659 27.0821 40.136 27.0821 39.5835V29.1668L27.0884 23.0856C27.0696 22.8543 26.6738 17.3752 30.605 13.1085C33.5279 9.93975 37.9509 8.3335 43.7488 8.3335H45.8321V14.2064L44.1571 14.5418C41.3029 15.1127 39.3175 16.2356 38.255 17.8835C37.7006 18.7713 37.3862 19.7878 37.3425 20.8335L43.7488 20.8335C44.3013 20.8335 44.8312 21.053 45.2219 21.4437C45.6126 21.8344 45.8321 22.3643 45.8321 22.9168L45.8321 37.5002C45.8321 39.7981 43.9634 41.6668 41.6654 41.6668Z" fill="#0696E7"/>
</g>
</svg>
