<svg width="30" height="30" viewBox="0 0 30 30" fill="none" xmlns="http://www.w3.org/2000/svg">
<g id="Frame">
<path id="Vector" d="M15 16.5625C15.8629 16.5625 16.5625 15.8629 16.5625 15C16.5625 14.1371 15.8629 13.4375 15 13.4375C14.1371 13.4375 13.4375 14.1371 13.4375 15C13.4375 15.8629 14.1371 16.5625 15 16.5625Z" fill="white"/>
<path id="Vector_2" d="M10 16.5625C10.8629 16.5625 11.5625 15.8629 11.5625 15C11.5625 14.1371 10.8629 13.4375 10 13.4375C9.13706 13.4375 8.4375 14.1371 8.4375 15C8.4375 15.8629 9.13706 16.5625 10 16.5625Z" fill="white"/>
<path id="Vector_3" d="M20 16.5625C20.8629 16.5625 21.5625 15.8629 21.5625 15C21.5625 14.1371 20.8629 13.4375 20 13.4375C19.1371 13.4375 18.4375 14.1371 18.4375 15C18.4375 15.8629 19.1371 16.5625 20 16.5625Z" fill="white"/>
<path id="Vector_4" d="M25.9626 21.1874C25.8501 20.8624 25.8626 20.5124 25.9876 20.2499C27.0626 17.9999 27.4251 15.4874 27.0126 12.9874C26.1876 7.89993 22.0626 3.78743 16.9876 2.97493C13.0251 2.34993 9.16256 3.59993 6.36256 6.39993C3.56256 9.21243 2.33756 13.0874 2.97506 17.0374C3.78756 22.0124 7.81256 26.0999 12.7751 26.9874C13.5251 27.1249 14.2751 27.1874 15.0126 27.1874C17.1876 27.1874 19.2876 26.6124 21.1876 25.4874C21.4126 25.3499 21.7626 25.2124 22.1626 25.2749L25.0626 25.7624C25.6126 25.8499 26.1501 25.6624 26.5126 25.2374C26.8751 24.8124 26.9876 24.2499 26.8126 23.7249L25.9626 21.1874ZM24.3001 19.4374C23.9626 20.1499 23.9126 20.9874 24.1876 21.7874L24.8626 23.8249L22.4751 23.4249C21.7376 23.2999 20.9376 23.4624 20.2376 23.8749C18.0751 25.1499 15.6126 25.5874 13.1001 25.1499C8.91256 24.3999 5.50006 20.9499 4.82506 16.7499C4.27506 13.3999 5.32506 10.1124 7.68756 7.73743C9.65006 5.76243 12.2501 4.69993 14.9876 4.69993C15.5501 4.69993 16.1251 4.74993 16.6876 4.83743C20.9751 5.51243 24.4626 8.99993 25.1626 13.2999C25.5126 15.4124 25.2126 17.5499 24.3001 19.4499V19.4374Z" fill="white"/>
</g>
</svg>
