<svg width="50" height="50" viewBox="0 0 50 50" fill="none" xmlns="http://www.w3.org/2000/svg">
<g id="Frame">
<g id="Group">
<path id="Vector" d="M6.0045 32.3685H4.1305L2.375 41.115C2.1515 42.2285 3.405 42.952 5.067 42.952C6.729 42.952 7.982 42.2295 7.759 41.115L6.0045 32.3685ZM6.445 30.09C6.445 30.456 6.29961 30.807 6.04081 31.0658C5.78201 31.3246 5.431 31.47 5.065 31.47C4.699 31.47 4.34799 31.3246 4.08919 31.0658C3.83039 30.807 3.685 30.456 3.685 30.09C3.685 29.325 4.305 28.705 5.065 28.705C5.83 28.705 6.445 29.325 6.445 30.09ZM48.316 15.1675L25.652 7.17148C25.1845 7.00648 24.817 7.00648 24.3495 7.17148L1.6835 15.1675C1.396 15.2685 1.25 15.4755 1.25 15.7805V17.946C1.25 18.251 1.396 18.4585 1.6835 18.56L25 26.785L48.316 18.56C48.604 18.458 48.75 18.2515 48.75 17.9465V15.78C48.75 15.475 48.604 15.2685 48.316 15.1675Z" fill="white"/>
<path id="Vector_2" d="M24.9995 28.7382L24.387 28.5217L10.47 23.6117V28.5637C10.47 36.2672 15.37 39.7387 24.9995 39.7387C34.6285 39.7387 39.528 36.2672 39.528 28.5637V23.6117L25.612 28.5217L24.9995 28.7382ZM5.98801 22.0307L4.14551 21.3807V27.9527H5.98801V22.0307Z" fill="white"/>
</g>
</g>
</svg>
