<svg width="50" height="50" viewBox="0 0 50 50" fill="none" xmlns="http://www.w3.org/2000/svg">
<g id="Frame">
<g id="Group">
<path id="Vector" d="M20.6055 23.4375H29.3945V26.3672H20.6055V23.4375Z" fill="white"/>
<path id="Vector_2" d="M40.5644 26.3672H32.3242V27.832C32.3242 28.6416 31.6689 29.2969 30.8594 29.2969H19.1406C18.3311 29.2969 17.6758 28.6416 17.6758 27.832V26.3672H9.43565C8.51329 26.3679 7.61414 26.0781 6.86584 25.5388C6.11755 24.9996 5.55812 24.2383 5.26699 23.3631L0 7.55957V39.5508C0 41.9739 1.97148 43.9453 4.39453 43.9453H45.6055C48.0286 43.9453 50 41.9738 50 39.5508V7.56074L44.7326 23.3631C44.4416 24.2383 43.8823 24.9996 43.1341 25.5388C42.3859 26.0781 41.4868 26.3679 40.5645 26.3672H40.5644Z" fill="white"/>
<path id="Vector_3" d="M30.8595 0H19.1407C16.7176 0 14.7462 1.97148 14.7462 4.39453V5.85938H2.52051L8.04531 22.4361C8.14258 22.7279 8.32921 22.9816 8.57876 23.1614C8.82831 23.3411 9.12811 23.4377 9.43565 23.4375H17.6759V21.9727C17.6759 21.1631 18.3312 20.5078 19.1407 20.5078H30.8595C31.669 20.5078 32.3243 21.1631 32.3243 21.9727V23.4375H40.5645C41.1953 23.4375 41.7546 23.0354 41.9549 22.4361L47.4801 5.85938H35.254V4.39453C35.254 1.97139 33.2826 0 30.8595 0ZM17.6759 5.85938V4.39453C17.6759 3.58623 18.3324 2.92969 19.1407 2.92969H30.8595C31.6678 2.92969 32.3243 3.58623 32.3243 4.39453V5.85938H17.6759Z" fill="white"/>
</g>
</g>
</svg>
