<svg width="22" height="22" viewBox="0 0 22 22" fill="none" xmlns="http://www.w3.org/2000/svg">
<g id="Group">
<path id="Vector" d="M19.8828 7.63672C19.7534 7.32109 19.535 7.04993 19.2542 6.8563C18.9733 6.66267 18.6422 6.55494 18.3012 6.54624C17.9602 6.53754 17.624 6.62826 17.3337 6.80732C17.0433 6.98639 16.8114 7.24606 16.666 7.55469L16.5078 6.96875C16.393 6.69543 16.2109 6.4556 15.9785 6.27156C15.7461 6.08752 15.4709 5.96525 15.1785 5.91613C14.8861 5.86702 14.5861 5.89264 14.3063 5.99063C14.0265 6.08861 13.776 6.25577 13.5782 6.47656L11.9024 4.78906C11.5509 4.45651 11.0854 4.27119 10.6016 4.27119C10.1177 4.27119 9.65226 4.45651 9.30081 4.78906C9.28465 4.81353 9.26704 4.83701 9.24807 4.85937L8.52151 4.13281C8.17142 3.7976 7.70543 3.61048 7.22073 3.61048C6.73603 3.61048 6.27004 3.7976 5.91995 4.13281C5.70205 4.36058 5.54314 4.63817 5.45706 4.94141L5.39846 4.88281C5.04701 4.55026 4.58153 4.36494 4.09768 4.36494C3.61383 4.36494 3.14835 4.55026 2.7969 4.88281C2.45482 5.22934 2.26301 5.69666 2.26301 6.18359C2.26301 6.67052 2.45482 7.13785 2.7969 7.48437L2.86135 7.54297C2.55846 7.62577 2.282 7.78518 2.05862 8.00586C1.8866 8.1754 1.75 8.37745 1.65676 8.60026C1.56352 8.82306 1.51551 9.06218 1.51551 9.30371C1.51551 9.54524 1.56352 9.78436 1.65676 10.0072C1.75 10.23 1.8866 10.432 2.05862 10.6016L2.24612 10.7891C1.93399 10.8605 1.64669 11.0143 1.41409 11.2344C1.07059 11.5802 0.877808 12.0478 0.877808 12.5352C0.877808 13.0225 1.07059 13.4902 1.41409 13.8359L6.81057 19.2324C7.32012 19.7411 7.92503 20.1442 8.59064 20.4187C9.25625 20.6932 9.96949 20.8337 10.6895 20.832C10.9246 20.831 11.1594 20.8154 11.3926 20.7852C12.2159 21.2534 13.1467 21.4997 14.0938 21.5C15.511 21.4905 16.8783 20.9752 17.9492 20.0469L19.7715 18.2656C20.5604 17.4742 21.0334 16.422 21.1016 15.3066C21.2539 12.7344 20.6094 10.1328 19.8828 7.63672ZM9.96878 5.48047C10.1397 5.31851 10.3661 5.22823 10.6016 5.22823C10.837 5.22823 11.0635 5.31851 11.2344 5.48047L13.1328 7.38477C13.1272 7.47061 13.1272 7.55673 13.1328 7.64258V8.75586L9.92776 5.55078C9.93979 5.52642 9.95349 5.50293 9.96878 5.48047ZM7.47854 18.5879L2.08206 13.1914C1.99844 13.1086 1.93206 13.01 1.88676 12.9014C1.84146 12.7928 1.81814 12.6763 1.81814 12.5586C1.81814 12.4409 1.84146 12.3244 1.88676 12.2158C1.93206 12.1072 1.99844 12.0086 2.08206 11.9258C2.25226 11.7625 2.479 11.6713 2.71487 11.6713C2.95074 11.6713 3.17748 11.7625 3.34768 11.9258L6.27737 14.8555C6.36697 14.9421 6.48672 14.9905 6.61135 14.9905C6.73599 14.9905 6.85574 14.9421 6.94534 14.8555C7.03336 14.7666 7.08274 14.6466 7.08274 14.5215C7.08274 14.3964 7.03336 14.2764 6.94534 14.1875L2.73245 9.97461C2.64222 9.89195 2.57011 9.79147 2.52069 9.67952C2.47127 9.56757 2.44562 9.44659 2.44534 9.32422C2.44473 9.20593 2.46833 9.08877 2.51468 8.97995C2.56103 8.87112 2.62916 8.77293 2.71487 8.69141C2.8829 8.52395 3.11046 8.42993 3.34768 8.42993C3.58491 8.42993 3.81246 8.52395 3.98049 8.69141L8.19339 12.9102C8.28298 12.9968 8.40274 13.0452 8.52737 13.0452C8.652 13.0452 8.77176 12.9968 8.86135 12.9102C8.94938 12.8213 8.99876 12.7013 8.99876 12.5762C8.99876 12.4511 8.94938 12.3311 8.86135 12.2422L3.45901 6.83984C3.37491 6.75741 3.30823 6.65891 3.26293 6.55021C3.21764 6.4415 3.19465 6.3248 3.19534 6.20703C3.19518 6.08847 3.21838 5.97104 3.26362 5.86146C3.30886 5.75187 3.37526 5.65227 3.45901 5.56836C3.6299 5.4064 3.85638 5.31612 4.09182 5.31612C4.32727 5.31612 4.55375 5.4064 4.72464 5.56836L5.89651 6.74023L10.1035 10.9531C10.1946 11.0279 10.3102 11.0661 10.4279 11.0603C10.5456 11.0545 10.6569 11.0052 10.7402 10.9219C10.8236 10.8385 10.8729 10.7272 10.8787 10.6095C10.8845 10.4919 10.8463 10.3762 10.7715 10.2852L6.55862 6.07227C6.475 5.98945 6.40862 5.89089 6.36333 5.78227C6.31803 5.67366 6.2947 5.55714 6.2947 5.43945C6.2947 5.32177 6.31803 5.20525 6.36333 5.09663C6.40862 4.98802 6.475 4.88945 6.55862 4.80664C6.72839 4.64023 6.95664 4.54702 7.19436 4.54702C7.43209 4.54702 7.66034 4.64023 7.8301 4.80664L13.2266 10.2031C13.2936 10.268 13.378 10.3119 13.4696 10.3296C13.5611 10.3473 13.6559 10.338 13.7422 10.3027C13.8271 10.2662 13.8994 10.2058 13.9504 10.1288C14.0014 10.0517 14.0289 9.96151 14.0293 9.86914V7.63672C14.0286 7.5491 14.0425 7.46198 14.0703 7.37891C14.1202 7.21167 14.222 7.06469 14.3611 6.95932C14.5002 6.85394 14.6693 6.79567 14.8438 6.79297C15.0011 6.79228 15.1554 6.83588 15.289 6.91878C15.4227 7.00167 15.5303 7.12052 15.5996 7.26172C15.9512 8.52148 16.2324 9.60547 16.4492 10.666C16.7158 11.9407 16.8201 13.244 16.7598 14.5449C16.7083 15.4305 16.3305 16.2655 15.6992 16.8887L13.9297 18.7168C13.2228 19.3423 12.3496 19.7493 11.416 19.8887C10.7036 20.001 9.97456 19.9416 9.28968 19.7154C8.60481 19.4891 7.98387 19.1026 7.47854 18.5879ZM20.1641 15.2246C20.1078 16.1089 19.7306 16.9423 19.1035 17.5684L17.3106 19.3789C16.7157 19.8988 16.0025 20.2651 15.2334 20.4459C14.4643 20.6266 13.6627 20.6164 12.8985 20.416C13.5034 20.1803 14.067 19.85 14.5684 19.4375L16.3848 17.6152C17.1818 16.8264 17.6578 15.77 17.7207 14.6504C17.7862 13.2887 17.6779 11.9242 17.3985 10.5898L17.4336 8.30469C17.4328 8.19521 17.4538 8.08666 17.4954 7.98536C17.5369 7.88406 17.5982 7.79203 17.6756 7.71461C17.753 7.6372 17.845 7.57594 17.9463 7.5344C18.0476 7.49287 18.1562 7.47188 18.2657 7.47266C18.4205 7.4725 18.5723 7.51651 18.703 7.59954C18.8338 7.68256 18.9382 7.80116 19.0039 7.94141C19.6953 10.4082 20.3106 12.8223 20.1641 15.2246ZM8.12893 2.83789C8.21596 2.92725 8.33491 2.97837 8.45963 2.98002C8.58435 2.98167 8.70462 2.9337 8.79397 2.84668C8.88333 2.75966 8.93445 2.6407 8.9361 2.51598C8.93775 2.39126 8.88979 2.271 8.80276 2.18164L7.81253 1.15039C7.7228 1.07383 7.60778 1.03343 7.48988 1.03705C7.37198 1.04068 7.25966 1.08807 7.17481 1.17C7.08995 1.25193 7.03865 1.36252 7.03089 1.48022C7.02313 1.59791 7.05947 1.71428 7.13284 1.80664L8.12893 2.83789ZM10.4727 2.56836C10.5342 2.56836 10.5952 2.55623 10.6521 2.53268C10.7089 2.50912 10.7606 2.47459 10.8041 2.43107C10.8477 2.38754 10.8822 2.33586 10.9058 2.27899C10.9293 2.22212 10.9414 2.16117 10.9414 2.09961V0.927734C10.9414 0.803414 10.892 0.684186 10.8041 0.596278C10.7162 0.50837 10.597 0.458984 10.4727 0.458984C10.3484 0.458984 10.2291 0.50837 10.1412 0.596278C10.0533 0.684186 10.0039 0.803414 10.0039 0.927734V2.09961C10.0038 2.22094 10.0508 2.33758 10.135 2.425C10.2191 2.51242 10.3339 2.56381 10.4551 2.56836H10.4727ZM12.4532 2.97852C12.5757 2.97709 12.6931 2.92888 12.7813 2.84375L13.7598 1.85937C13.8415 1.77094 13.886 1.65447 13.8842 1.53409C13.8823 1.41371 13.8342 1.29866 13.7499 1.21278C13.6655 1.1269 13.5513 1.07678 13.431 1.0728C13.3107 1.06882 13.1934 1.11129 13.1035 1.19141L12.1074 2.16406C12.0633 2.20718 12.0283 2.25867 12.0043 2.31552C11.9804 2.37237 11.9681 2.43343 11.9681 2.49512C11.9681 2.5568 11.9804 2.61786 12.0043 2.67471C12.0283 2.73156 12.0633 2.78306 12.1074 2.82617C12.1489 2.87256 12.1994 2.91 12.2558 2.93619C12.3122 2.96239 12.3734 2.97679 12.4356 2.97852H12.4532Z" fill="white"/>
</g>
</svg>
