<svg width="150" height="24" viewBox="0 0 150 24" fill="none" xmlns="http://www.w3.org/2000/svg">
<g id="Group 368">
<path id="Vector" d="M24.7498 8.37289C23.4005 8.18345 22.2964 8.0281 22.2964 8.0281L18.2165 7.45418C17.7612 7.39048 17.2224 7.01187 17.0188 6.61287L15.1945 3.03722C15.1945 3.03722 14.7008 2.06961 14.097 0.886857C13.4933 -0.295619 12.5059 -0.295619 11.9021 0.886857C11.2986 2.06961 10.8049 3.03722 10.8049 3.03722L8.98033 6.61287C8.77696 7.01187 8.23791 7.39048 7.78263 7.45418L3.70361 8.0281C3.70361 8.0281 2.5995 8.18317 1.25013 8.37289C-0.0995322 8.56262 -0.404592 9.47099 0.571831 10.3911C1.54796 11.312 2.3473 12.0653 2.3473 12.0653L5.2991 14.8489C5.62872 15.1587 5.8344 15.772 5.7564 16.2099L5.05991 20.1398C5.05991 20.1398 4.87127 21.2038 4.64103 22.5034C4.4105 23.8035 5.20955 24.3648 6.4165 23.7512C7.62374 23.1374 8.61085 22.6353 8.61085 22.6353L12.2597 20.7797C12.6668 20.5729 13.3329 20.5729 13.7403 20.7797L17.3891 22.6353C17.3891 22.6353 18.3765 23.1374 19.5841 23.7512C20.7907 24.3648 21.5898 23.8038 21.3592 22.5034C21.129 21.2038 20.9406 20.1398 20.9406 20.1398L20.2439 16.2099C20.1659 15.772 20.3713 15.1587 20.7012 14.8489L23.653 12.0653C23.653 12.0653 24.452 11.312 25.4284 10.3911C26.4043 9.47099 26.0998 8.56262 24.7498 8.37289Z" fill="#FCA137"/>
<path id="Vector_2" d="M55.7498 8.37289C54.4005 8.18345 53.2964 8.0281 53.2964 8.0281L49.2165 7.45418C48.7612 7.39048 48.2224 7.01187 48.0188 6.61287L46.1945 3.03722C46.1945 3.03722 45.7008 2.06961 45.097 0.886857C44.4933 -0.295619 43.5059 -0.295619 42.9021 0.886857C42.2986 2.06961 41.8049 3.03722 41.8049 3.03722L39.9803 6.61287C39.777 7.01187 39.2379 7.39048 38.7826 7.45418L34.7036 8.0281C34.7036 8.0281 33.5995 8.18317 32.2501 8.37289C30.9005 8.56262 30.5954 9.47099 31.5718 10.3911C32.548 11.312 33.3473 12.0653 33.3473 12.0653L36.2991 14.8489C36.6287 15.1587 36.8344 15.772 36.7564 16.2099L36.0599 20.1398C36.0599 20.1398 35.8713 21.2038 35.641 22.5034C35.4105 23.8035 36.2095 24.3648 37.4165 23.7512C38.6237 23.1374 39.6109 22.6353 39.6109 22.6353L43.2597 20.7797C43.6668 20.5729 44.3329 20.5729 44.7403 20.7797L48.3891 22.6353C48.3891 22.6353 49.3765 23.1374 50.5841 23.7512C51.7907 24.3648 52.5898 23.8038 52.3592 22.5034C52.129 21.2038 51.9406 20.1398 51.9406 20.1398L51.2439 16.2099C51.1659 15.772 51.3713 15.1587 51.7012 14.8489L54.653 12.0653C54.653 12.0653 55.452 11.312 56.4284 10.3911C57.4043 9.47099 57.0998 8.56262 55.7498 8.37289Z" fill="#FCA137"/>
<path id="Vector_3" d="M86.7498 8.37289C85.4005 8.18345 84.2964 8.0281 84.2964 8.0281L80.2165 7.45418C79.7612 7.39048 79.2224 7.01187 79.0188 6.61287L77.1945 3.03722C77.1945 3.03722 76.7008 2.06961 76.097 0.886857C75.4933 -0.295619 74.5059 -0.295619 73.9021 0.886857C73.2986 2.06961 72.8049 3.03722 72.8049 3.03722L70.9803 6.61287C70.777 7.01187 70.2379 7.39048 69.7826 7.45418L65.7036 8.0281C65.7036 8.0281 64.5995 8.18317 63.2501 8.37289C61.9005 8.56262 61.5954 9.47099 62.5718 10.3911C63.548 11.312 64.3473 12.0653 64.3473 12.0653L67.2991 14.8489C67.6287 15.1587 67.8344 15.772 67.7564 16.2099L67.0599 20.1398C67.0599 20.1398 66.8713 21.2038 66.641 22.5034C66.4105 23.8035 67.2095 24.3648 68.4165 23.7512C69.6237 23.1374 70.6109 22.6353 70.6109 22.6353L74.2597 20.7797C74.6668 20.5729 75.3329 20.5729 75.7403 20.7797L79.3891 22.6353C79.3891 22.6353 80.3765 23.1374 81.5841 23.7512C82.7907 24.3648 83.5898 23.8038 83.3592 22.5034C83.129 21.2038 82.9406 20.1398 82.9406 20.1398L82.2439 16.2099C82.1659 15.772 82.3713 15.1587 82.7012 14.8489L85.653 12.0653C85.653 12.0653 86.452 11.312 87.4284 10.3911C88.4043 9.47099 88.0998 8.56262 86.7498 8.37289Z" fill="#FCA137"/>
<path id="Vector_4" d="M117.75 8.37289C116.4 8.18345 115.296 8.0281 115.296 8.0281L111.216 7.45418C110.761 7.39048 110.222 7.01187 110.019 6.61287L108.194 3.03722C108.194 3.03722 107.701 2.06961 107.097 0.886857C106.493 -0.295619 105.506 -0.295619 104.902 0.886857C104.299 2.06961 103.805 3.03722 103.805 3.03722L101.98 6.61287C101.777 7.01187 101.238 7.39048 100.783 7.45418L96.7036 8.0281C96.7036 8.0281 95.5995 8.18317 94.2501 8.37289C92.9005 8.56262 92.5954 9.47099 93.5718 10.3911C94.548 11.312 95.3473 12.0653 95.3473 12.0653L98.2991 14.8489C98.6287 15.1587 98.8344 15.772 98.7564 16.2099L98.0599 20.1398C98.0599 20.1398 97.8713 21.2038 97.641 22.5034C97.4105 23.8035 98.2095 24.3648 99.4165 23.7512C100.624 23.1374 101.611 22.6353 101.611 22.6353L105.26 20.7797C105.667 20.5729 106.333 20.5729 106.74 20.7797L110.389 22.6353C110.389 22.6353 111.377 23.1374 112.584 23.7512C113.791 24.3648 114.59 23.8038 114.359 22.5034C114.129 21.2038 113.941 20.1398 113.941 20.1398L113.244 16.2099C113.166 15.772 113.371 15.1587 113.701 14.8489L116.653 12.0653C116.653 12.0653 117.452 11.312 118.428 10.3911C119.404 9.47099 119.1 8.56262 117.75 8.37289Z" fill="#FCA137"/>
<path id="Vector_5" d="M148.75 8.37289C147.4 8.18345 146.296 8.0281 146.296 8.0281L142.216 7.45418C141.761 7.39048 141.222 7.01187 141.019 6.61287L139.194 3.03722C139.194 3.03722 138.701 2.06961 138.097 0.886857C137.493 -0.295619 136.506 -0.295619 135.902 0.886857C135.299 2.06961 134.805 3.03722 134.805 3.03722L132.98 6.61287C132.777 7.01187 132.238 7.39048 131.783 7.45418L127.704 8.0281C127.704 8.0281 126.599 8.18317 125.25 8.37289C123.9 8.56262 123.595 9.47099 124.572 10.3911C125.548 11.312 126.347 12.0653 126.347 12.0653L129.299 14.8489C129.629 15.1587 129.834 15.772 129.756 16.2099L129.06 20.1398C129.06 20.1398 128.871 21.2038 128.641 22.5034C128.411 23.8035 129.21 24.3648 130.417 23.7512C131.624 23.1374 132.611 22.6353 132.611 22.6353L136.26 20.7797C136.667 20.5729 137.333 20.5729 137.74 20.7797L141.389 22.6353C141.389 22.6353 142.377 23.1374 143.584 23.7512C144.791 24.3648 145.59 23.8038 145.359 22.5034C145.129 21.2038 144.941 20.1398 144.941 20.1398L144.244 16.2099C144.166 15.772 144.371 15.1587 144.701 14.8489L147.653 12.0653C147.653 12.0653 148.452 11.312 149.428 10.3911C150.404 9.47099 150.1 8.56262 148.75 8.37289Z" fill="#FCA137"/>
</g>
</svg>
