<svg width="20" height="20" viewBox="0 0 20 20" fill="none" xmlns="http://www.w3.org/2000/svg">
<g id="Frame" clip-path="url(#clip0_1_1955)">
<g id="Group">
<path id="Vector" d="M15.8849 3.27755L7.63531 3.27755C7.41683 3.28135 7.20859 3.3708 7.05543 3.52664C6.90228 3.68249 6.81645 3.89225 6.81645 4.11076C6.81645 4.32926 6.90228 4.53903 7.05543 4.69487C7.20859 4.85071 7.41683 4.94017 7.63531 4.94396L13.8732 4.94396L3.51052 15.3066C3.35424 15.4629 3.26644 15.6749 3.26644 15.8959C3.26644 16.1169 3.35424 16.3288 3.51052 16.4851C3.6668 16.6414 3.87876 16.7292 4.09977 16.7292C4.32078 16.7292 4.53275 16.6414 4.68903 16.4851L15.0517 6.12247L15.0517 12.3603C15.0498 12.471 15.0699 12.5809 15.1109 12.6837C15.1519 12.7864 15.213 12.88 15.2905 12.9589C15.3681 13.0379 15.4606 13.1005 15.5626 13.1433C15.6647 13.1861 15.7742 13.2081 15.8849 13.2081C15.9955 13.2081 16.1051 13.1861 16.2071 13.1433C16.3092 13.1005 16.4017 13.0379 16.4792 12.9589C16.5568 12.88 16.6179 12.7864 16.6589 12.6837C16.6999 12.5809 16.72 12.471 16.7181 12.3603L16.7181 4.11076C16.7181 3.88979 16.6303 3.67788 16.474 3.52163C16.3178 3.36538 16.1059 3.27758 15.8849 3.27755Z" fill="#44AFE0"/>
</g>
</g>
<defs>
<clipPath id="clip0_1_1955">
<rect width="20" height="20" fill="white"/>
</clipPath>
</defs>
</svg>
