<svg width="44" height="44" viewBox="0 0 44 44" fill="none" xmlns="http://www.w3.org/2000/svg">
<g id="Website Coding" clip-path="url(#clip0_0_720)">
<g id="website coding and gear">
<path id="Vector" d="M4.58366 4.58333C5.08992 4.58333 5.50033 4.17293 5.50033 3.66667C5.50033 3.16041 5.08992 2.75 4.58366 2.75C4.0774 2.75 3.66699 3.16041 3.66699 3.66667C3.66699 4.17293 4.0774 4.58333 4.58366 4.58333Z" fill="white"/>
<path id="Vector_2" d="M8.24967 4.58333C8.75593 4.58333 9.16634 4.17293 9.16634 3.66667C9.16634 3.16041 8.75593 2.75 8.24967 2.75C7.74341 2.75 7.33301 3.16041 7.33301 3.66667C7.33301 4.17293 7.74341 4.58333 8.24967 4.58333Z" fill="white"/>
<path id="Vector_3" d="M11.9167 4.58333C12.4229 4.58333 12.8333 4.17293 12.8333 3.66667C12.8333 3.16041 12.4229 2.75 11.9167 2.75C11.4104 2.75 11 3.16041 11 3.66667C11 4.17293 11.4104 4.58333 11.9167 4.58333Z" fill="white"/>
<path id="Vector_4" d="M43.0833 32.0833H41.635C41.6158 32.0484 41.6005 32.0115 41.5892 31.9733L42.6158 30.9467C42.7008 30.861 42.768 30.7594 42.8136 30.6477C42.8592 30.5361 42.8824 30.4165 42.8817 30.2958C42.8783 30.0531 42.7833 29.8207 42.6158 29.645L40.3333 27.3717V3.66667C40.3333 2.69421 39.947 1.76158 39.2594 1.07394C38.5718 0.386308 37.6391 0 36.6667 0L3.66667 0C2.69421 0 1.76158 0.386308 1.07394 1.07394C0.386308 1.76158 0 2.69421 0 3.66667L0 35.75C0 35.9931 0.0965771 36.2263 0.268485 36.3982C0.440394 36.5701 0.673552 36.6667 0.916667 36.6667H25.6667C25.6667 36.9098 25.7632 37.1429 25.9352 37.3148C26.1071 37.4868 26.3402 37.5833 26.5833 37.5833H28.0317C28.0508 37.6183 28.0662 37.6551 28.0775 37.6933L27.0508 38.72C26.9659 38.8057 26.8987 38.9072 26.853 39.0189C26.8074 39.1306 26.7843 39.2502 26.785 39.3708C26.7884 39.6135 26.8833 39.846 27.0508 40.0217L29.645 42.6158C29.7302 42.7018 29.8316 42.7699 29.9433 42.8165C30.055 42.863 30.1748 42.887 30.2958 42.887C30.4168 42.887 30.5367 42.863 30.6484 42.8165C30.7601 42.7699 30.8615 42.7018 30.9467 42.6158L31.9733 41.5892L32.0833 41.635V43.0833C32.0833 43.3265 32.1799 43.5596 32.3518 43.7315C32.5237 43.9034 32.7569 44 33 44H36.6667C36.9098 44 37.1429 43.9034 37.3148 43.7315C37.4868 43.5596 37.5833 43.3265 37.5833 43.0833V41.635L37.6933 41.5892L38.72 42.6158C38.8057 42.7008 38.9072 42.768 39.0189 42.8136C39.1306 42.8592 39.2502 42.8824 39.3708 42.8817C39.6135 42.8783 39.846 42.7833 40.0217 42.6158L42.6158 40.0217C42.7833 39.846 42.8783 39.6135 42.8817 39.3708C42.8824 39.2502 42.8592 39.1306 42.8136 39.0189C42.768 38.9072 42.7008 38.8057 42.6158 38.72L41.5892 37.6933C41.6005 37.6551 41.6158 37.6183 41.635 37.5833H43.0833C43.3265 37.5833 43.5596 37.4868 43.7315 37.3148C43.9034 37.1429 44 36.9098 44 36.6667V33C44 32.7569 43.9034 32.5237 43.7315 32.3518C43.5596 32.1799 43.3265 32.0833 43.0833 32.0833ZM1.83333 3.66667C1.83333 3.18044 2.02649 2.71412 2.3703 2.3703C2.71412 2.02649 3.18044 1.83333 3.66667 1.83333H36.6667C37.1529 1.83333 37.6192 2.02649 37.963 2.3703C38.3068 2.71412 38.5 3.18044 38.5 3.66667V5.5H1.83333V3.66667ZM1.83333 34.8333V7.33333H38.5V27.28L37.6933 28.0775L37.5833 28.0317V26.5833C37.5833 26.3402 37.4868 26.1071 37.3148 25.9352C37.1429 25.7632 36.9098 25.6667 36.6667 25.6667H33C32.7569 25.6667 32.5237 25.7632 32.3518 25.9352C32.1799 26.1071 32.0833 26.3402 32.0833 26.5833V28.0317L31.9733 28.0775L30.9467 27.0508C30.861 26.9659 30.7594 26.8987 30.6477 26.853C30.5361 26.8074 30.4165 26.7843 30.2958 26.785C30.0531 26.7884 29.8207 26.8833 29.645 27.0508L27.0508 29.645C26.8833 29.8207 26.7884 30.0531 26.785 30.2958C26.7843 30.4165 26.8074 30.5361 26.853 30.6477C26.8987 30.7594 26.9659 30.861 27.0508 30.9467L28.0775 31.9733C28.0662 32.0115 28.0508 32.0484 28.0317 32.0833H26.5833C26.3402 32.0833 26.1071 32.1799 25.9352 32.3518C25.7632 32.5237 25.6667 32.7569 25.6667 33V34.8333H1.83333ZM42.1667 35.75H40.9842C40.7808 35.7413 40.5803 35.8006 40.4143 35.9184C40.2484 36.0362 40.1263 36.206 40.0675 36.4008C39.9614 36.7635 39.817 37.1138 39.6367 37.4458C39.5541 37.6195 39.5283 37.8148 39.5628 38.004C39.5974 38.1932 39.6906 38.3667 39.8292 38.5L40.6633 39.3342L39.4167 40.6633L38.5 39.8292C38.3596 39.6884 38.1774 39.5972 37.9806 39.569C37.7839 39.5409 37.5833 39.5775 37.4092 39.6733C37.0771 39.8537 36.7268 39.9981 36.3642 40.1042C36.1693 40.163 35.9996 40.285 35.8817 40.451C35.7639 40.617 35.7046 40.8175 35.7133 41.0208V42.1667H33.9167V40.9842C33.9254 40.7808 33.8661 40.5803 33.7483 40.4143C33.6304 40.2484 33.4607 40.1263 33.2658 40.0675C32.9032 39.9614 32.5529 39.817 32.2208 39.6367C32.0467 39.5409 31.8461 39.5043 31.6494 39.5324C31.4526 39.5605 31.2704 39.6518 31.13 39.7925L30.2958 40.6267L29.0033 39.4167L29.8375 38.5825C29.9782 38.4422 30.0695 38.2599 30.0976 38.0631C30.1257 37.8664 30.0891 37.6658 29.9933 37.4917C29.813 37.1596 29.6686 36.8093 29.5625 36.4467C29.5037 36.2518 29.3816 36.0821 29.2157 35.9642C29.0497 35.8464 28.8492 35.7871 28.6458 35.7958H27.5V33.9167H28.6825C28.8859 33.9254 29.0863 33.8661 29.2523 33.7483C29.4183 33.6304 29.5403 33.4607 29.5992 33.2658C29.7052 32.9032 29.8497 32.5529 30.03 32.2208C30.1125 32.0471 30.1384 31.8519 30.1038 31.6627C30.0693 31.4735 29.9761 31.3 29.8375 31.1667L29.0033 30.3325L30.2958 29.04L31.13 29.8742C31.2704 30.0149 31.4526 30.1062 31.6494 30.1343C31.8461 30.1624 32.0467 30.1258 32.2208 30.03C32.5529 29.8497 32.9032 29.7052 33.2658 29.5992C33.4607 29.5403 33.6304 29.4183 33.7483 29.2523C33.8661 29.0863 33.9254 28.8859 33.9167 28.6825V27.5H35.75V28.6825C35.7413 28.8859 35.8006 29.0863 35.9184 29.2523C36.0362 29.4183 36.206 29.5403 36.4008 29.5992C36.7635 29.7052 37.1138 29.8497 37.4458 30.03C37.6195 30.1125 37.8148 30.1384 38.004 30.1038C38.1932 30.0693 38.3667 29.9761 38.5 29.8375L39.3342 29.0033L40.6267 30.2958L39.7925 31.13C39.6518 31.2704 39.5605 31.4526 39.5324 31.6494C39.5043 31.8461 39.5409 32.0467 39.6367 32.2208C39.817 32.5529 39.9614 32.9032 40.0675 33.2658C40.1263 33.4607 40.2484 33.6304 40.4143 33.7483C40.5803 33.8661 40.7808 33.9254 40.9842 33.9167H42.1667V35.75Z" fill="white"/>
<path id="Vector_5" d="M34.8338 31.1667C34.1086 31.1667 33.3997 31.3817 32.7967 31.7846C32.1937 32.1875 31.7237 32.7602 31.4462 33.4302C31.1687 34.1002 31.0961 34.8374 31.2376 35.5487C31.379 36.2599 31.7282 36.9133 32.241 37.4261C32.7538 37.9389 33.4072 38.2881 34.1184 38.4296C34.8297 38.571 35.5669 38.4984 36.2369 38.2209C36.9069 37.9434 37.4796 37.4734 37.8825 36.8704C38.2854 36.2675 38.5004 35.5585 38.5004 34.8333C38.5004 33.8609 38.1141 32.9283 37.4265 32.2406C36.7389 31.553 35.8062 31.1667 34.8338 31.1667ZM34.8338 36.6667C34.4712 36.6667 34.1167 36.5592 33.8152 36.3577C33.5137 36.1563 33.2787 35.8699 33.14 35.5349C33.0012 35.1999 32.9649 34.8313 33.0357 34.4757C33.1064 34.12 33.281 33.7934 33.5374 33.537C33.7938 33.2806 34.1205 33.106 34.4761 33.0352C34.8317 32.9645 35.2004 33.0008 35.5354 33.1396C35.8703 33.2783 36.1567 33.5133 36.3581 33.8148C36.5596 34.1163 36.6671 34.4707 36.6671 34.8333C36.6671 35.3196 36.4739 35.7859 36.1301 36.1297C35.7863 36.4735 35.32 36.6667 34.8338 36.6667ZM16.2346 16.7658C16.1494 16.6799 16.048 16.6117 15.9363 16.5652C15.8246 16.5187 15.7048 16.4947 15.5838 16.4947C15.4628 16.4947 15.3429 16.5187 15.2312 16.5652C15.1195 16.6117 15.0181 16.6799 14.9329 16.7658L11.2663 20.4325C11.1803 20.5177 11.1122 20.6191 11.0656 20.7308C11.0191 20.8425 10.9951 20.9623 10.9951 21.0833C10.9951 21.2044 11.0191 21.3242 11.0656 21.4359C11.1122 21.5476 11.1803 21.649 11.2663 21.7342L14.9329 25.4008C15.0181 25.4868 15.1195 25.555 15.2312 25.6015C15.3429 25.648 15.4628 25.672 15.5838 25.672C15.7048 25.672 15.8246 25.648 15.9363 25.6015C16.048 25.555 16.1494 25.4868 16.2346 25.4008C16.3205 25.3156 16.3887 25.2142 16.4353 25.1025C16.4818 24.9908 16.5057 24.871 16.5057 24.75C16.5057 24.629 16.4818 24.5092 16.4353 24.3975C16.3887 24.2858 16.3205 24.1844 16.2346 24.0992L13.2096 21.0833L16.2346 18.0675C16.3205 17.9823 16.3887 17.8809 16.4353 17.7692C16.4818 17.6575 16.5057 17.5377 16.5057 17.4167C16.5057 17.2957 16.4818 17.1759 16.4353 17.0641C16.3887 16.9524 16.3205 16.8511 16.2346 16.7658ZM29.0679 20.4325L25.4013 16.7658C25.2287 16.5932 24.9945 16.4963 24.7504 16.4963C24.5063 16.4963 24.2722 16.5932 24.0996 16.7658C23.927 16.9385 23.83 17.1726 23.83 17.4167C23.83 17.6608 23.927 17.8949 24.0996 18.0675L27.1246 21.0833L24.0996 24.0992C24.0137 24.1844 23.9455 24.2858 23.8989 24.3975C23.8524 24.5092 23.8285 24.629 23.8285 24.75C23.8285 24.871 23.8524 24.9908 23.8989 25.1025C23.9455 25.2142 24.0137 25.3156 24.0996 25.4008C24.1848 25.4868 24.2862 25.555 24.3979 25.6015C24.5096 25.648 24.6294 25.672 24.7504 25.672C24.8714 25.672 24.9913 25.648 25.103 25.6015C25.2147 25.555 25.316 25.4868 25.4013 25.4008L29.0679 21.7342C29.1539 21.649 29.222 21.5476 29.2686 21.4359C29.3151 21.3242 29.3391 21.2044 29.3391 21.0833C29.3391 20.9623 29.3151 20.8425 29.2686 20.7308C29.222 20.6191 29.1539 20.5177 29.0679 20.4325ZM21.2671 15.5833C21.1465 15.5567 21.0218 15.5547 20.9005 15.5775C20.7791 15.6002 20.6636 15.6472 20.5609 15.7157C20.4582 15.7842 20.3703 15.8727 20.3027 15.976C20.235 16.0793 20.1889 16.1951 20.1671 16.3167L18.3338 25.4833C18.3071 25.6039 18.3051 25.7286 18.3279 25.8499C18.3506 25.9713 18.3977 26.0868 18.4661 26.1895C18.5346 26.2923 18.6232 26.3801 18.7264 26.4478C18.8297 26.5154 18.9456 26.5616 19.0671 26.5833H19.2504C19.4649 26.5877 19.6741 26.5167 19.8416 26.3827C20.009 26.2487 20.1242 26.0602 20.1671 25.85L22.0004 16.6833C22.0271 16.5628 22.0291 16.4381 22.0063 16.3167C21.9836 16.1954 21.9365 16.0799 21.8681 15.9772C21.7996 15.8744 21.711 15.7866 21.6078 15.7189C21.5045 15.6512 21.3886 15.6051 21.2671 15.5833Z" fill="white"/>
</g>
</g>
<defs>
<clipPath id="clip0_0_720">
<rect width="44" height="44" fill="white"/>
</clipPath>
</defs>
</svg>
